<svg id="footer-logo" xmlns="http://www.w3.org/2000/svg" width="192.591" height="180.18" viewBox="0 0 192.591 180.18">
  <path id="Path_216" data-name="Path 216" d="M254.892,219.4a59.979,59.979,0,0,0,7.311-.075,15.778,15.778,0,0,0,4.748-1.206l-9.874,47.407-12.436.3s10.473-46.274,10.251-46.427Zm23.3-27.625a24.381,24.381,0,0,0-6.488-1.357H271.7a21.341,21.341,0,0,0-5.552.429c-1.847.373-3.794.863-5.644,1.329-6.063,1.528-11.165,2.812-15.261.261a9.158,9.158,0,0,1-1-.72,11.654,11.654,0,0,1-3.878-7.378,12.577,12.577,0,0,1,1.623-8.314,10.042,10.042,0,0,1,.807-1.124,13.964,13.964,0,0,1,5.758-4.037,17.2,17.2,0,0,1,7.318-1.073c5.821.382,10.678,3.073,14.727,6.821a53.323,53.323,0,0,1,9.626,12.707l2.234,3.909-4.263-1.453Zm-6.294-4.76a24.494,24.494,0,0,1,3.178.4,43.812,43.812,0,0,0-6.789-8.3c-3.517-3.255-7.693-5.588-12.632-5.912a13.83,13.83,0,0,0-5.877.846,10.564,10.564,0,0,0-4.356,3.036,7,7,0,0,0-.541.749,9.152,9.152,0,0,0-1.14,6.045,8.228,8.228,0,0,0,2.677,5.214,5.539,5.539,0,0,0,.625.453c2.866,1.784,7.329.662,12.633-.674,1.788-.45,3.668-.924,5.8-1.355a24.559,24.559,0,0,1,6.418-.5v0Zm12.129-14.2,2.708,3.607.355-4.494a53.315,53.315,0,0,0-.795-15.914c-1.234-5.373-3.733-10.33-8.332-13.926a17.172,17.172,0,0,0-6.655-3.244,13.962,13.962,0,0,0-7.031.1,10.183,10.183,0,0,0-1.3.469,12.588,12.588,0,0,0-6.026,5.961,11.652,11.652,0,0,0-.944,8.278,9.228,9.228,0,0,0,.415,1.155c1.949,4.417,6.889,6.231,12.763,8.384,1.782.653,3.657,1.341,5.412,2.082a21.221,21.221,0,0,1,4.827,2.768,24.349,24.349,0,0,1,4.6,4.774Zm-2.518-7.472a24.638,24.638,0,0,0-5.587-3.207c-1.989-.839-3.82-1.511-5.56-2.148-5.133-1.884-9.451-3.468-10.813-6.557a5.564,5.564,0,0,1-.268-.728,8.236,8.236,0,0,1,.728-5.818,9.141,9.141,0,0,1,4.345-4.347,6.647,6.647,0,0,1,.87-.322,10.583,10.583,0,0,1,5.31-.047,13.752,13.752,0,0,1,5.331,2.6c3.9,3.045,6.03,7.329,7.1,12a43.871,43.871,0,0,1,.935,10.685,24.755,24.755,0,0,0-2.4-2.117Zm21.133,7.492a8.781,8.781,0,0,0,5.872,2.822c4.823.224,6.707-.83,9.648-.83s4.673,1.432,8.215.452,5.126-2.336,5.8-5.653a25.31,25.31,0,0,0,.376-6.782c0-1.809.075-3.694-2.94-4.221s-3.692-.527-4.748-1.809-6.406-7.915-7.01-13.491,1.735-15.3,6.859-21.028,8.819-8.213,8.743-11.907-.716-4.559-1.432-5.314-.979-.566-.83.905.039,5.126.039,5.126a2.086,2.086,0,0,1-2.223-1.961c-.415-2.187-.6-5.389-1.168-6.256s-1.017-.942-1.017-.942-.34,6.859.413,9.158a23.029,23.029,0,0,0,1.019,2.787,3.605,3.605,0,0,1-3.468-.338c-1.583-1.206-2.978-2.94-2.9-6.634s-.527-4.484-.979-5.464-2.376-4.221.865-4.561,11.116,2.3,17.109,2.15,17.6.413,18.954-4.787.641-7.8.641-7.8a10.114,10.114,0,0,1,4.407,9.044c-.527,5.953-5.952,8.367-10.023,9.5s-8.668.905-8.894,2.413.9,1.656,4.372,1.807,7.085.077,11.457,2.111,7.309,3.617,5.2,7.763-9.12,9.873-13.717,9.948-6.784-3.013-9.27-2.561-3.318-.228-3.318,2.939,1.056,10.4-1.509,15.149-3.694,8.141-3.318,15,.452,13.113-4.9,16.053-13.49,2.637-17.184,2.11a26.021,26.021,0,0,1-10.009-4.41c-1.154-.958-1.864-3.062-.01-1.457.287.249.441.518.879.972Zm39.282-50.651c4.221,6.333,15,1.584,17.863-.828s3.692-4.522,2.337-5.8a15.279,15.279,0,0,0-12.059-3.468c-5.879.98-8.141,10.1-8.141,10.1Zm-5.236,5.692c.905-.868-1.394-.716-2.336-.34s-3.694,2.675-5.993,5.841,3.015,3.092,4.636,2.6,3.655-4.221,3.127-6.1.566-2,.566-2Zm-2.148,1.884a14.354,14.354,0,0,0-3.165,2.675c-1.922,2-1.733,2-.828,2.036a3.512,3.512,0,0,0,3.617-1.546,3.981,3.981,0,0,0,.376-3.165Zm-13.8,68.26s10.249-.755,16.128,3.241,16.807,10.625,23.516,12.133,25.171-3.314,32.632-1.656,15.753,4.75,17.788,10.326.753,8.215-.3,9.872-4.37,4.146-4.37,4.146l2.561,1.884a12.469,12.469,0,0,0,4.3-11.758c-1.131-7.838-8.44-15.526-20.577-17.334s-24.04,2.789-35.647-3.241S343.951,195.077,333.4,189.8s-15.526-3.391-15.526-3.391,2.864,11.683,2.864,11.606Zm10.328,59.507a15.12,15.12,0,0,1-3.209,5.582c-2.638,2.714-13.341,5.651-19.446,0s-7.308-27.209-6.628-30.148,2.185-8.668,2.034-12.814-2.488-6.632-3.391-3.09-3.92,40.1-3.92,40.1h-8.969l5.2-44.846s6.784-.755,12.663-1.507c2.749-.352,4.328-.555,5.392-.264,4,1.092,2.764,7.782,1.577,10.611a81.9,81.9,0,0,1-4.408,8.344c-2.337,4.146-.83,3.769.529,4.675s2.033,2.26,2.938,8.215,1.357,18.2,3.58,18.313,2.791-3.015,2.791-3.015l13.266-.151Zm-61.021-29.607-6.03,37.535,41.68.3s-.98-.979-2.413-2.714a8.484,8.484,0,0,1-1.731-2.939l-30.754-.3,1.886-11.154h6.18s1.733-1.81,1.733-3.393-.3-1.2-3.241-1.2a27.491,27.491,0,0,1-4.221-.228l1.581-8.892,6.255-.151a19.066,19.066,0,0,0,2.036-5.049l.3-2.036s-13.19.075-13.264.226Zm51.952-55.081a5.92,5.92,0,0,0,2.3.044v0a9.3,9.3,0,0,0,3.3-1.383c1.9-1.2,1.695-3.5,1.535-5.27v0c-.038-.439-.077-.853-.084-1.226l-.005-.249c-.026-1.621-.058-3.3-1.157-3.544a10.252,10.252,0,0,0-2.589-.268,14.443,14.443,0,0,0-3.523.6,18.024,18.024,0,0,1-9.678,0,14.443,14.443,0,0,0-3.523-.6,10.266,10.266,0,0,0-2.591.268c-1.1.243-1.129,1.922-1.157,3.544l0,.249c-.007.373-.045.786-.084,1.226v0c-.159,1.767-.368,4.071,1.535,5.27a9.306,9.306,0,0,0,3.3,1.383v0a5.921,5.921,0,0,0,2.3-.044,17.523,17.523,0,0,1,10.116,0Zm2.537,1.388h0a10.651,10.651,0,0,0,3.791-1.576c2.608-1.644,2.356-4.419,2.165-6.546-.037-.411-.072-.8-.079-1.128l-.005-.249c-.037-2.148-.077-4.373-2.225-4.851a11.56,11.56,0,0,0-2.919-.3h0a15.757,15.757,0,0,0-3.855.646,16.746,16.746,0,0,1-8.939,0,15.768,15.768,0,0,0-3.855-.646h0a11.555,11.555,0,0,0-2.917.3c-2.15.478-2.188,2.7-2.225,4.851l-.005.249c-.007.327-.042.716-.079,1.128-.191,2.127-.443,4.9,2.166,6.546a10.638,10.638,0,0,0,3.79,1.576h0a7.232,7.232,0,0,0,2.815-.053,16.359,16.359,0,0,1,9.563,0,7.224,7.224,0,0,0,2.813.053Zm1.761-10.739c-.674.515-2.118,1.612-2.8,2.1h0a.841.841,0,0,0-.282.543,1.019,1.019,0,0,0,.024.468h0a.571.571,0,0,0,.21.3,1.132,1.132,0,0,0,.788.135,2.165,2.165,0,0,0,1.514-.833,3.54,3.54,0,0,0,.7-2.069,1.243,1.243,0,0,0-.114-.56l0,0-.042-.074Zm-3.587.986h0a2.2,2.2,0,0,0-.837,1.429,2.366,2.366,0,0,0,.072,1.1v0a1.929,1.929,0,0,0,.706.987,2.44,2.44,0,0,0,1.73.385,3.487,3.487,0,0,0,2.442-1.346,4.988,4.988,0,0,0,1-2.913,2.581,2.581,0,0,0-.257-1.169h0a2.041,2.041,0,0,0-.579-.711,1.33,1.33,0,0,0-.7-.275h-.051l-.063.011-.016,0L326,162l-.128.089c-.007,0-2.264,1.737-3.169,2.378Zm-14.839-2.378-.128-.089-.145-.025-.017,0-.063-.011h-.051a1.332,1.332,0,0,0-.7.275,2.044,2.044,0,0,0-.579.711h0a2.583,2.583,0,0,0-.257,1.169,4.979,4.979,0,0,0,1,2.913,3.487,3.487,0,0,0,2.442,1.346,2.434,2.434,0,0,0,1.728-.385,1.92,1.92,0,0,0,.706-.987v0a2.39,2.39,0,0,0,.073-1.1,2.21,2.21,0,0,0-.837-1.429h0c-.905-.641-3.162-2.374-3.169-2.378Zm2.383,3.488c-.683-.483-2.127-1.581-2.8-2.1l-.042.074,0,0a1.241,1.241,0,0,0-.114.56,3.531,3.531,0,0,0,.7,2.069,2.157,2.157,0,0,0,1.513.833,1.138,1.138,0,0,0,.79-.135.578.578,0,0,0,.208-.3h0a1.019,1.019,0,0,0,.023-.468.833.833,0,0,0-.282-.543Z" transform="translate(-220.55 -86.153)" fill="#0971b7" fill-rule="evenodd"/>
  <path id="Path_217" data-name="Path 217" d="M323.1,185.914l3.316,14.773a95.691,95.691,0,0,0-25.475,7.236c-12.511,5.728-32.107,9.948-39.644,8.44s-12.887-2.938-17.786-1.959a81.932,81.932,0,0,0-12.21,3.769c-1.282.527-4.673-.151.376-2.488s12.36-5.8,20.123-4.673,17.713,3.241,27.811-2.413,25.778-16.279,31.657-19.519,11.531-3.316,11.832-3.167Zm90.152,47.78,4.447-4.221s-1.206-3.241-8.442-2.789-12.814.151-15.676,6.557-3.165,20.351,5.049,16.732,7.462-4.6,9.948-4.822,5.5,5.35,5.576,10.853-.151,5.049-5.954,3.241-12.324-5.653-15.375-4.787a10.831,10.831,0,0,0-5.012,3.393l10.025,4.333s1.542-2.336,3.955-.151,10.477,6.182,14.622.905,4.9-13.868,1.507-18.39-7.614-2.034-12.814.075-7.46.755-7.008-5.35,3.015-10.326,8.819-10.627,6.481,4.9,6.334,5.047Zm-43.942-3.318c.079.152-1.429,14.923.3,21.783s5.954,4.673,7.084.979,2.11-24.645,2.11-24.645l6.408-.828s-1.133,14.468-.982,20.649-.679,13.644,2.11,13.794,3.393-1.206,3.393-1.206l3.993,1.884s-4.748,3.843-9.8,3.391S377.747,256,377.747,256a28.025,28.025,0,0,1-2.638,6.18c-2.036,3.694-5.051,4-9.12-1.733s-3.92-29.77-3.92-29.77l7.236-.3Zm-5.156,31.8-2.714-5.653c-3.9,2.735-6.956,4.892-7.987-.881-.66-3.7-.9-9.372-1.474-13.136-.9-5.954-1.581-7.311-2.938-8.215s-2.866-.529-.529-4.675a82.258,82.258,0,0,0,4.41-8.344c4.018-9.587-.6-11.543-8.78-10.5-5.879.753-10.853,1.658-10.853,1.658l-4.916,42.363h8.889c.7-8.283,2.952-34.634,3.713-37.613.9-3.542,3.241-1.056,3.391,3.09s-1.357,9.874-2.034,12.814c-.609,2.642-.117,22.953,5.5,29.957,4.71,5.876,10.741,2.605,16.326-.868Zm-54.184-99.506c0-1.809-.075-3.694,2.94-4.221s3.692-.529,4.748-1.809,5.653-6.257,6.255-11.835c1.537-14.22-4.951-19.229-10.741-29.175-3.1-5.322-5.145-11.812,1.623-12.987,1.3-.226,1.17.678,1.432,2.94s1.168,4.032,4.335,4.107,7.2-1.772,6.446-7.5-6.784-5.427-10.1-4.823a92.587,92.587,0,0,1-13.267,1.5c-5.993-.151-17.6.415-18.954-4.785s-.641-7.8-.641-7.8a10.113,10.113,0,0,0-4.407,9.043c.527,5.954,5.953,8.367,10.023,9.5s8.668.905,8.894,2.411-.9,1.658-4.372,1.809-7.085.077-11.457,2.111-7.309,3.617-5.2,7.763,9.12,9.873,13.717,9.948,6.784-3.013,9.27-2.561,3.318-.228,3.318,2.938-1.054,10.4,1.509,15.151,3.241,8.444,2.866,15.3c-.249,4.545-.383,9.526,1.122,12.751.212.455,1.2.879,1.493,1.135a15.274,15.274,0,0,1-1.32-3.974c-.313-2.019.466-4.769.466-6.936Zm-9.367-40.66c-4.221,6.333-15,1.583-17.863-.828s-3.692-4.522-2.335-5.8a15.283,15.283,0,0,1,12.057-3.467c5.879.98,8.141,10.1,8.141,10.1Zm5.237,5.69c-.905-.867,1.394-.714,2.336-.338s3.694,2.675,5.993,5.841-3.015,3.09-4.636,2.6-3.656-4.219-3.127-6.1-.566-2-.566-2Zm2.148,1.886a14.348,14.348,0,0,1,3.165,2.675c1.922,2,1.733,2,.828,2.036a3.513,3.513,0,0,1-3.617-1.546,3.981,3.981,0,0,1-.376-3.165Zm57.857,57.957a24.488,24.488,0,0,1,3.178-.4v0a24.562,24.562,0,0,1,6.418.5c2.134.431,4.016.905,5.8,1.355,5.3,1.336,9.766,2.46,12.634.674a5.689,5.689,0,0,0,.625-.453A8.22,8.22,0,0,0,397.176,184a9.143,9.143,0,0,0-1.142-6.045,6.7,6.7,0,0,0-.539-.749,10.564,10.564,0,0,0-4.356-3.036,13.831,13.831,0,0,0-5.877-.846c-4.939.324-9.115,2.658-12.632,5.912a43.889,43.889,0,0,0-6.789,8.3Zm3.372,3.006a24.364,24.364,0,0,0-6.488,1.357l-4.263,1.453,2.234-3.909a53.317,53.317,0,0,1,9.625-12.707c4.05-3.748,8.906-6.439,14.728-6.821a17.194,17.194,0,0,1,7.318,1.073,13.955,13.955,0,0,1,5.758,4.037,10.309,10.309,0,0,1,.809,1.124,12.588,12.588,0,0,1,1.621,8.314,11.649,11.649,0,0,1-3.88,7.378,9.025,9.025,0,0,1-1,.72c-4.1,2.551-9.2,1.267-15.261-.261-1.851-.466-3.8-.956-5.646-1.329a21.319,21.319,0,0,0-5.55-.429Zm-12.2-22.961a24.319,24.319,0,0,1,2.4-2.117,24.591,24.591,0,0,1,5.585-3.207c1.989-.839,3.82-1.511,5.56-2.148,5.133-1.884,9.451-3.468,10.813-6.557a5.583,5.583,0,0,0,.268-.728,8.226,8.226,0,0,0-.728-5.818,9.141,9.141,0,0,0-4.345-4.347,6.836,6.836,0,0,0-.87-.322,10.589,10.589,0,0,0-5.312-.047,13.757,13.757,0,0,0-5.329,2.6c-3.894,3.045-6.03,7.329-7.1,12a43.941,43.941,0,0,0-.935,10.685Zm4.478.581a24.352,24.352,0,0,0-4.6,4.774l-2.708,3.608-.357-4.5a53.487,53.487,0,0,1,.8-15.914c1.236-5.373,3.733-10.329,8.332-13.926a17.172,17.172,0,0,1,6.655-3.244,13.962,13.962,0,0,1,7.031.1,10.2,10.2,0,0,1,1.3.469,12.586,12.586,0,0,1,6.026,5.961,11.652,11.652,0,0,1,.944,8.278,9.24,9.24,0,0,1-.415,1.156c-1.949,4.417-6.889,6.231-12.763,8.384-1.782.653-3.657,1.341-5.413,2.082A21.346,21.346,0,0,0,361.49,168.167Z" transform="translate(-228.99 -86.282)" fill="#00a0e3" fill-rule="evenodd"/>
</svg>
