<svg xmlns="http://www.w3.org/2000/svg" width="136.034" height="152.896" viewBox="0 0 136.034 152.896">
  <g id="Group_513" data-name="Group 513" transform="translate(-277.966 -0.285)">
    <rect id="Rectangle_94" data-name="Rectangle 94" width="147.425" height="116.084" transform="translate(278 147.71) rotate(-90)" fill="#fff"/>
    <g id="Group_345" data-name="Group 345" transform="translate(291.545 43.508)">
      <path id="Path_216" data-name="Path 216" d="M246.922,147.126a27.373,27.373,0,0,0,3.337-.034,7.2,7.2,0,0,0,2.167-.55l-4.506,21.635-5.675.137s4.78-21.118,4.678-21.188Zm10.634-12.607a11.126,11.126,0,0,0-2.961-.619h0a9.739,9.739,0,0,0-2.534.2c-.843.17-1.731.394-2.576.606-2.767.7-5.1,1.283-6.965.119a4.18,4.18,0,0,1-.457-.328,5.319,5.319,0,0,1-1.77-3.367,5.74,5.74,0,0,1,.741-3.794,4.584,4.584,0,0,1,.368-.513,6.373,6.373,0,0,1,2.628-1.842,7.849,7.849,0,0,1,3.34-.49,10.871,10.871,0,0,1,6.721,3.113,24.335,24.335,0,0,1,4.393,5.8l1.02,1.784-1.946-.663Zm-2.872-2.172a11.182,11.182,0,0,1,1.45.181,20,20,0,0,0-3.1-3.79,9.364,9.364,0,0,0-5.765-2.7,6.312,6.312,0,0,0-2.682.386,4.821,4.821,0,0,0-1.988,1.385,3.193,3.193,0,0,0-.247.342,4.177,4.177,0,0,0-.52,2.759,3.755,3.755,0,0,0,1.222,2.379,2.526,2.526,0,0,0,.285.207c1.308.814,3.345.3,5.766-.308.816-.205,1.674-.422,2.649-.618a11.207,11.207,0,0,1,2.929-.227Zm5.535-6.481,1.236,1.646.162-2.051a24.331,24.331,0,0,0-.363-7.263,10.866,10.866,0,0,0-3.8-6.355,7.836,7.836,0,0,0-3.037-1.481,6.372,6.372,0,0,0-3.209.046,4.648,4.648,0,0,0-.593.214,5.745,5.745,0,0,0-2.75,2.721,5.318,5.318,0,0,0-.431,3.778,4.213,4.213,0,0,0,.189.527c.889,2.016,3.144,2.844,5.825,3.826.813.3,1.669.612,2.47.95a9.685,9.685,0,0,1,2.2,1.263,11.112,11.112,0,0,1,2.1,2.179Zm-1.149-3.41a11.244,11.244,0,0,0-2.55-1.464c-.908-.383-1.743-.69-2.538-.98-2.343-.86-4.313-1.583-4.935-2.992a2.539,2.539,0,0,1-.122-.332,3.758,3.758,0,0,1,.332-2.655,4.172,4.172,0,0,1,1.983-1.984,3.033,3.033,0,0,1,.4-.147,4.83,4.83,0,0,1,2.423-.022,6.276,6.276,0,0,1,2.433,1.188,9.359,9.359,0,0,1,3.242,5.478,20.021,20.021,0,0,1,.427,4.876,11.3,11.3,0,0,0-1.093-.966Zm9.645,3.419a4.007,4.007,0,0,0,2.68,1.288c2.2.1,3.061-.379,4.4-.379s2.133.654,3.749.206,2.339-1.066,2.649-2.58a11.55,11.55,0,0,0,.172-3.1c0-.825.034-1.686-1.341-1.926s-1.685-.241-2.167-.825-2.923-3.612-3.2-6.157a14.2,14.2,0,0,1,3.13-9.6c2.339-2.614,4.025-3.748,3.99-5.434s-.327-2.081-.654-2.425-.447-.258-.379.413.018,2.339.018,2.339a.952.952,0,0,1-1.015-.895,15.463,15.463,0,0,0-.533-2.855c-.258-.4-.464-.43-.464-.43a19.059,19.059,0,0,0,.188,4.18,10.515,10.515,0,0,0,.465,1.272,1.645,1.645,0,0,1-1.583-.154,3.308,3.308,0,0,1-1.325-3.027,4.234,4.234,0,0,0-.447-2.494c-.207-.447-1.084-1.926.395-2.081s5.073,1.05,7.808.981,8.031.189,8.65-2.184a7.6,7.6,0,0,0,.292-3.56,4.616,4.616,0,0,1,2.011,4.128c-.24,2.717-2.717,3.818-4.574,4.334s-3.956.413-4.059,1.1.412.756,2,.825a12.307,12.307,0,0,1,5.229.964c2,.928,3.336,1.651,2.373,3.543s-4.162,4.506-6.26,4.54-3.1-1.375-4.231-1.169-1.514-.1-1.514,1.341.482,4.747-.689,6.914a11.037,11.037,0,0,0-1.514,6.846c.173,3.13.206,5.984-2.236,7.326s-6.156,1.2-7.842.963a11.875,11.875,0,0,1-4.568-2.013c-.527-.437-.851-1.4,0-.665.131.113.2.237.4.443Zm17.927-23.116c1.926,2.89,6.845.723,8.152-.378s1.685-2.064,1.067-2.648a6.973,6.973,0,0,0-5.5-1.583c-2.683.447-3.715,4.609-3.715,4.609Zm-2.39,2.6c.413-.4-.636-.327-1.066-.155a9.552,9.552,0,0,0-2.735,2.665c-1.049,1.445,1.376,1.411,2.116,1.187a3.024,3.024,0,0,0,1.427-2.786c-.24-.86.258-.912.258-.912Zm-.98.86a6.55,6.55,0,0,0-1.445,1.221c-.877.912-.791.912-.378.929a1.6,1.6,0,0,0,1.651-.705,1.817,1.817,0,0,0,.172-1.445Zm-6.3,31.152s4.677-.344,7.36,1.479,7.67,4.849,10.732,5.537,11.487-1.513,14.892-.756,7.189,2.168,8.118,4.712.344,3.749-.138,4.505a10.955,10.955,0,0,1-1.994,1.892l1.169.86a5.691,5.691,0,0,0,1.961-5.366c-.516-3.577-3.852-7.085-9.391-7.911s-10.971,1.273-16.268-1.479-5.846-4.816-10.663-7.223-7.085-1.548-7.085-1.548,1.307,5.332,1.307,5.3Zm4.713,27.157a6.9,6.9,0,0,1-1.465,2.547c-1.2,1.238-6.088,2.579-8.874,0s-3.335-12.417-3.025-13.759a25.418,25.418,0,0,0,.928-5.848c-.069-1.892-1.135-3.027-1.548-1.41s-1.789,18.3-1.789,18.3h-4.093l2.374-20.466s3.1-.344,5.779-.688a7.532,7.532,0,0,1,2.461-.121c1.823.5,1.262,3.551.72,4.843a37.381,37.381,0,0,1-2.012,3.808c-1.067,1.892-.379,1.72.241,2.133s.928,1.032,1.341,3.749.619,8.305,1.634,8.357,1.274-1.376,1.274-1.376l6.054-.069Zm-27.848-13.512-2.752,17.13,19.022.137s-.447-.447-1.1-1.238a3.872,3.872,0,0,1-.79-1.341l-14.035-.137.861-5.09h2.82a2.9,2.9,0,0,0,.791-1.548c0-.721-.138-.55-1.479-.55a12.546,12.546,0,0,1-1.926-.1l.722-4.058,2.855-.069a8.7,8.7,0,0,0,.929-2.3l.137-.929s-6.02.034-6.053.1Zm23.709-25.137a2.7,2.7,0,0,0,1.05.02h0a4.247,4.247,0,0,0,1.508-.631c.868-.547.773-1.6.7-2.4h0c-.018-.2-.035-.389-.038-.559l0-.113c-.012-.74-.026-1.506-.528-1.617a4.679,4.679,0,0,0-1.182-.122,6.591,6.591,0,0,0-1.608.272,8.225,8.225,0,0,1-4.417,0,6.591,6.591,0,0,0-1.608-.272,4.685,4.685,0,0,0-1.183.122c-.5.111-.515.877-.528,1.617l0,.113c0,.17-.021.359-.038.559h0c-.073.806-.168,1.858.7,2.4a4.247,4.247,0,0,0,1.508.631h0a2.7,2.7,0,0,0,1.05-.02,8,8,0,0,1,4.617,0Zm1.158.634h0a4.861,4.861,0,0,0,1.73-.719c1.19-.75,1.075-2.017.988-2.987-.017-.188-.033-.365-.036-.515l0-.113c-.017-.98-.035-2-1.016-2.214a5.276,5.276,0,0,0-1.332-.137h0a7.191,7.191,0,0,0-1.759.295,7.642,7.642,0,0,1-4.08,0,7.2,7.2,0,0,0-1.759-.295h0a5.273,5.273,0,0,0-1.331.137c-.981.218-1,1.234-1.015,2.214l0,.113c0,.149-.019.327-.036.515-.087.971-.2,2.237.988,2.987a4.854,4.854,0,0,0,1.73.719h0a3.3,3.3,0,0,0,1.285-.024,7.466,7.466,0,0,1,4.364,0,3.3,3.3,0,0,0,1.284.024Zm.8-4.9c-.308.235-.967.736-1.278.956h0a.384.384,0,0,0-.129.248.465.465,0,0,0,.011.213h0a.261.261,0,0,0,.1.136.517.517,0,0,0,.36.062.988.988,0,0,0,.691-.38,1.615,1.615,0,0,0,.319-.944.567.567,0,0,0-.052-.256h0l-.019-.034Zm-1.637.45h0a1,1,0,0,0-.382.652,1.079,1.079,0,0,0,.033.5v0a.881.881,0,0,0,.322.451,1.113,1.113,0,0,0,.789.176,1.592,1.592,0,0,0,1.115-.614,2.276,2.276,0,0,0,.455-1.33,1.178,1.178,0,0,0-.117-.534h0a.931.931,0,0,0-.264-.324.607.607,0,0,0-.318-.125h-.023l-.029,0-.007,0-.067.011-.058.041s-1.033.793-1.446,1.085Zm-6.772-1.085-.058-.041-.066-.011-.008,0-.029,0h-.023a.608.608,0,0,0-.317.125.932.932,0,0,0-.264.324h0a1.179,1.179,0,0,0-.117.534,2.272,2.272,0,0,0,.456,1.33,1.591,1.591,0,0,0,1.115.614,1.111,1.111,0,0,0,.789-.176.876.876,0,0,0,.322-.451v0a1.091,1.091,0,0,0,.034-.5,1.009,1.009,0,0,0-.382-.652h0c-.413-.292-1.443-1.083-1.446-1.085Zm1.087,1.592c-.312-.221-.971-.721-1.278-.956l-.019.034h0a.566.566,0,0,0-.052.256,1.611,1.611,0,0,0,.32.944.985.985,0,0,0,.69.38.519.519,0,0,0,.36-.062.263.263,0,0,0,.1-.136h0a.465.465,0,0,0,.01-.213.38.38,0,0,0-.129-.248Z" transform="translate(-231.249 -86.317)" fill="#0971b7" fill-rule="evenodd"/>
      <path id="Path_217" data-name="Path 217" d="M271.936,131.751l1.513,6.742a43.67,43.67,0,0,0-11.626,3.3c-5.71,2.614-14.653,4.54-18.092,3.852s-5.881-1.341-8.117-.894a37.388,37.388,0,0,0-5.572,1.72c-.585.241-2.133-.069.172-1.135s5.641-2.648,9.184-2.133,8.083,1.479,12.692-1.1,11.764-7.429,14.447-8.908a10.824,10.824,0,0,1,5.4-1.445Zm41.142,21.805,2.029-1.926s-.551-1.479-3.853-1.273-5.848.069-7.154,2.992-1.445,9.287,2.3,7.636,3.405-2.1,4.54-2.2,2.51,2.442,2.545,4.953-.069,2.3-2.717,1.479-5.624-2.58-7.017-2.184a4.943,4.943,0,0,0-2.287,1.548l4.575,1.978a1.112,1.112,0,0,1,1.8-.069c1.1,1,4.781,2.821,6.673.413s2.236-6.329.688-8.393-3.475-.928-5.848.034-3.4.344-3.2-2.442,1.376-4.712,4.025-4.85a2.516,2.516,0,0,1,2.891,2.3Zm-20.054-1.514c.036.07-.652,6.811.139,9.941s2.717,2.132,3.233.447.963-11.247.963-11.247l2.924-.378s-.517,6.6-.448,9.423-.31,6.227.963,6.3,1.548-.551,1.548-.551l1.823.86a7.208,7.208,0,0,1-4.471,1.548c-2.3-.206-2.82-4.644-2.82-4.644a12.789,12.789,0,0,1-1.2,2.82c-.929,1.686-2.305,1.823-4.162-.791s-1.789-13.586-1.789-13.586l3.3-.137Zm-2.353,14.511-1.238-2.58c-1.781,1.248-3.174,2.232-3.645-.4-.3-1.687-.412-4.277-.673-5.995-.412-2.717-.721-3.337-1.341-3.749s-1.308-.241-.241-2.133a37.538,37.538,0,0,0,2.013-3.808c1.834-4.375-.276-5.268-4.007-4.791-2.683.344-4.953.757-4.953.757l-2.244,19.333H278.4c.318-3.78,1.347-15.806,1.695-17.166.412-1.616,1.479-.482,1.548,1.41a25.419,25.419,0,0,1-.928,5.848c-.278,1.206-.053,10.475,2.508,13.672,2.149,2.681,4.9,1.189,7.451-.4Zm-24.728-45.411c0-.825-.034-1.686,1.342-1.926s1.685-.241,2.167-.825,2.58-2.856,2.855-5.4c.7-6.489-2.26-8.775-4.9-13.314-1.414-2.429-2.348-5.391.741-5.927.593-.1.534.309.654,1.342a1.815,1.815,0,0,0,1.978,1.874,2.756,2.756,0,0,0,2.942-3.423c-.344-2.614-3.1-2.477-4.609-2.2a42.253,42.253,0,0,1-6.055.686c-2.735-.069-8.031.189-8.65-2.184a7.6,7.6,0,0,1-.292-3.56,4.615,4.615,0,0,0-2.011,4.127c.24,2.717,2.717,3.818,4.574,4.335s3.956.413,4.059,1.1-.412.757-2,.825a12.294,12.294,0,0,0-5.229.964c-1.994.928-3.336,1.651-2.373,3.543s4.162,4.506,6.26,4.54,3.1-1.375,4.231-1.169,1.514-.1,1.514,1.341-.481,4.748.689,6.914,1.479,3.854,1.308,6.983c-.113,2.074-.175,4.347.512,5.819.1.208.548.4.682.518a6.972,6.972,0,0,1-.6-1.814,24.3,24.3,0,0,1,.212-3.166Zm-4.275-18.556c-1.926,2.89-6.845.722-8.152-.378s-1.685-2.064-1.066-2.649a6.974,6.974,0,0,1,5.5-1.582c2.683.447,3.715,4.609,3.715,4.609Zm2.39,2.6c-.413-.4.636-.326,1.066-.154a9.541,9.541,0,0,1,2.735,2.665c1.05,1.445-1.376,1.41-2.116,1.187a3.022,3.022,0,0,1-1.427-2.785c.241-.861-.258-.912-.258-.912Zm.98.861a6.548,6.548,0,0,1,1.445,1.221c.877.912.791.912.378.929a1.6,1.6,0,0,1-1.651-.706,1.817,1.817,0,0,1-.172-1.445Zm26.4,26.45a11.177,11.177,0,0,1,1.45-.181h0a11.21,11.21,0,0,1,2.929.227c.974.2,1.833.413,2.649.618,2.421.61,4.457,1.123,5.766.308a2.6,2.6,0,0,0,.285-.207,3.751,3.751,0,0,0,1.222-2.379,4.173,4.173,0,0,0-.521-2.759,3.057,3.057,0,0,0-.246-.342,4.821,4.821,0,0,0-1.988-1.385,6.312,6.312,0,0,0-2.682-.386,9.364,9.364,0,0,0-5.765,2.7,20.03,20.03,0,0,0-3.1,3.79Zm1.539,1.372a11.12,11.12,0,0,0-2.961.619l-1.945.663,1.02-1.784a24.333,24.333,0,0,1,4.393-5.8,10.871,10.871,0,0,1,6.721-3.113,7.847,7.847,0,0,1,3.34.49,6.368,6.368,0,0,1,2.628,1.842,4.708,4.708,0,0,1,.369.513,5.745,5.745,0,0,1,.74,3.794,5.316,5.316,0,0,1-1.771,3.367,4.118,4.118,0,0,1-.456.328c-1.87,1.164-4.2.578-6.965-.119-.845-.213-1.733-.436-2.577-.606a9.729,9.729,0,0,0-2.533-.2Zm-5.568-10.479a11.1,11.1,0,0,1,1.094-.966,11.223,11.223,0,0,1,2.549-1.464c.908-.383,1.743-.69,2.538-.98,2.343-.86,4.313-1.583,4.935-2.992a2.548,2.548,0,0,0,.122-.332,3.754,3.754,0,0,0-.332-2.655,4.171,4.171,0,0,0-1.983-1.984,3.121,3.121,0,0,0-.4-.147,4.833,4.833,0,0,0-2.424-.022,6.278,6.278,0,0,0-2.432,1.188,9.363,9.363,0,0,0-3.242,5.478,20.055,20.055,0,0,0-.427,4.876Zm2.044.265a11.115,11.115,0,0,0-2.1,2.179l-1.236,1.647-.163-2.052a24.41,24.41,0,0,1,.364-7.263,10.871,10.871,0,0,1,3.8-6.355,7.837,7.837,0,0,1,3.037-1.481,6.372,6.372,0,0,1,3.209.046,4.654,4.654,0,0,1,.593.214,5.744,5.744,0,0,1,2.75,2.721,5.318,5.318,0,0,1,.431,3.778,4.214,4.214,0,0,1-.189.527c-.889,2.016-3.144,2.844-5.825,3.826-.813.3-1.669.612-2.471.95A9.742,9.742,0,0,0,289.458,123.652Z" transform="translate(-228.99 -86.282)" fill="#00a0e3" fill-rule="evenodd"/>
    </g>
    <text id="ТМ" transform="translate(401 148)" fill="#fff" font-size="14" font-family="PFDinTextCompPro-Medium, PF Din Text Comp Pro" font-weight="500"><tspan x="0" y="0">ТМ</tspan></text>
    <g id="Group_378" data-name="Group 378" transform="translate(0 13)">
      <g id="Group_377" data-name="Group 377" transform="translate(280 133.185)">
        <path id="Path_218" data-name="Path 218" d="M-23440.127-6788.32c7.729,4.226,12.355,5.836,20.244,2.473s19.41-3.929,25.658-.824,17.039,4.531,21.051.824,21.461-3.533,25.322-.824,13.1,3.381,20.236,1.57" transform="translate(23440.127 6789.125)" fill="none" stroke="#fff" stroke-linecap="round" stroke-linejoin="bevel" stroke-width="3"/>
        <path id="Path_239" data-name="Path 239" d="M-2-11.761S-2.038,1.3-1.589,1.734C3.256,4.12,13.048,5.666,15.94,5.015S26.063.749,30.836.749,45.009.6,47.4,2.2,58.6,5.811,62.436,5.015,76.464-.77,81.309-.119,91.721,3.28,94.9,4.075s10.885,2.008,15.224,1.646,3.985-1.843,3.985-1.843V-11.836Z" fill="#fff"/>
      </g>
    </g>
  </g>
</svg>
